<svg width="120" height="120" viewBox="0 0 120 120" fill="none" xmlns="http://www.w3.org/2000/svg">
<path d="M67.3652 119.745C65.8015 119.471 64.1815 118.729 63.2627 117.908C62.639 117.253 62.2831 116.389 62.2652 115.485C62.2652 114.566 62.734 113.276 63.4765 111.99C63.9265 111.266 64.279 110.486 64.5302 109.665C64.6877 109.099 65.0177 108.18 65.2727 107.595L65.7227 106.523L65.839 99.3563C65.899 95.3925 66.0152 91.7213 66.1127 91.1513C66.3677 89.5088 66.7952 87.9075 67.3615 86.3475L67.7927 85.3125L67.1665 84.9413C66.6002 84.5888 66.1315 84.1013 64.2752 81.8925C61.9915 79.1963 58.984 77.7113 54.724 77.205C53.3365 77.07 51.9302 76.9688 50.524 76.9125C44.2727 76.62 40.699 75.3113 37.4777 72.1463C35.074 69.7838 33.8252 67.0275 33.319 62.9663C32.6365 57.4763 31.8752 54.6638 30.469 52.38C30.1224 51.816 29.7231 51.2861 29.2765 50.7975L28.7102 50.2313L27.4615 51.0338C26.779 51.4838 25.819 52.05 25.3502 52.305C23.7865 53.1638 22.3015 54.12 20.8765 55.155C17.3815 57.6938 13.5715 60.8775 11.4827 62.9663C10.5452 63.9038 10.0577 64.3125 9.84022 64.275C8.41522 64.0613 9.50647 57.8888 11.8315 53.2388C14.8015 47.2425 19.8002 41.715 25.5827 37.9838C30.3302 34.9163 38.0065 30.6975 41.5577 29.2125C47.8652 26.5763 56.029 23.7225 61.6165 22.2C62.7902 21.8663 63.5102 21.5738 63.9977 21.2438C65.0927 20.4825 66.1652 20.1113 67.3952 20.0925C68.4302 20.0738 68.5277 20.055 69.5252 19.3875C70.699 18.6263 71.0477 18.585 72.2215 18.9975L72.9827 19.2713L73.9202 18.6263L74.8577 18L76.204 18.0188C77.239 18.0375 77.7077 18 78.1577 17.805C78.724 17.55 78.7427 17.5125 78.9002 16.575C79.2527 14.5425 79.2902 13.5263 79.0765 12.2963C78.8027 10.6763 78.7652 4.3875 79.039 3.15375C79.3315 1.82625 79.5265 1.5525 80.524 1.065C82.009 0.341252 83.1227 0.127502 85.6802 0.127502C88.804 0.127502 90.3865 0.558753 91.5602 1.69125C92.614 2.7075 92.7902 5.08875 92.2427 10.6763C91.909 13.8975 91.8715 14.7975 91.969 16.905C92.0065 18.2513 92.104 19.5225 92.1452 19.6988C92.224 20.0325 92.3027 20.0513 93.4352 20.07C94.549 20.0888 94.744 20.1488 95.7977 20.6963C96.814 21.225 97.5752 21.87 97.7327 22.3388C97.7515 22.4363 97.9277 22.4363 98.239 22.3388C98.8427 22.1625 99.3715 22.3575 99.8027 22.8863C100.058 23.22 100.211 23.2763 100.8 23.2763C101.603 23.2763 101.895 23.4713 102.559 24.45C102.869 24.8893 103.295 25.2344 103.789 25.4475C104.884 25.995 106.369 27.5175 106.935 28.7288C107.813 30.525 107.989 32.6138 107.441 34.4888C107.246 35.1938 107.246 35.2125 107.655 35.895C108.514 37.3613 108.829 39.1575 108.476 40.68L108.281 41.58L108.866 42.165C111.776 45.075 111.345 49.8225 107.794 54.06C107.397 54.544 107.062 55.0756 106.796 55.6425C106.114 57.4575 105.33 58.7288 104.318 59.7825L103.283 60.8363H102.229C101.175 60.8363 99.6902 60.4838 98.7902 60.015C98.419 59.82 98.4002 59.82 98.479 60.0525C98.7152 60.9113 99.3002 64.4063 99.4952 66.3413C99.8065 69.3113 99.709 73.6275 99.3002 75.4838C99.0015 76.8586 98.5011 78.1816 97.8152 79.41C97.4252 80.0363 97.4065 80.1713 97.4815 80.9325C97.5977 82.005 97.3465 83.805 96.9152 84.9938C96.3865 86.3813 96.1915 87.0263 96.0752 87.7275C95.9777 88.3313 95.9777 88.3313 96.409 88.3313C96.9752 88.3313 97.2865 88.665 97.2865 89.3288C97.2865 89.6213 97.0315 91.2038 96.7202 92.8238C95.8615 97.3763 95.8015 97.8825 95.8015 102.296C95.7827 106.849 95.7827 106.808 96.8177 107.49L99.1427 108.994C101.143 110.321 103.285 111.422 105.529 112.275C108.791 113.565 109.241 113.895 109.241 114.99C109.241 115.478 109.144 115.654 108.735 116.044C107.486 117.255 105.023 117.529 100.061 117C97.4835 116.758 94.8958 116.635 92.3065 116.629C85.4702 116.531 84.4727 116.295 83.5765 114.596C83.0702 113.621 83.1677 112.35 83.869 110.261C84.1802 109.343 84.454 108.405 84.6902 107.449C85.159 105.184 84.8477 102.488 83.7527 99.4425L82.8152 96.8438C81.8965 94.2075 81.3902 89.3813 81.9377 88.29C82.0352 88.0763 82.2115 88.035 82.6802 88.0538L83.2652 88.1138L83.7527 87.0975C84.124 86.295 84.5327 85.77 85.6465 84.6563L87.0715 83.2313L86.9927 82.3125C86.9327 81.435 85.7815 77.175 85.624 77.1938C85.564 77.1938 85.2527 77.625 84.9002 78.1688C84.0415 79.4588 82.1477 81.45 81.0715 82.1738C80.6027 82.485 80.2127 82.8563 80.2127 82.9763C80.194 83.505 79.744 84.54 79.1965 85.26C78.6677 85.965 78.6302 86.0813 78.709 86.7038C78.844 87.6225 78.5515 90.57 78.2027 92.115C77.8866 93.2622 77.4544 94.3742 76.9127 95.4338C75.5665 98.2275 74.5502 100.725 74.2952 101.88C74.1111 102.992 73.9934 104.114 73.9427 105.24C73.8827 106.568 73.7477 107.858 73.6502 108.131C73.5152 108.503 73.5152 108.795 73.6315 109.361C73.729 109.77 73.789 110.689 73.7665 111.413C73.7477 112.41 73.8265 113.055 74.119 114.225C74.6252 116.216 74.7227 117.469 74.4902 118.211C74.3327 118.68 74.179 118.856 73.6502 119.111C72.4765 119.715 69.1577 120.049 67.3615 119.738L67.3652 119.745ZM72.109 118.144C72.7915 117.949 73.3802 117.364 73.3802 116.835C73.3802 116.599 73.1852 115.916 72.949 115.313C72.4802 114.161 71.6777 111.113 71.6777 110.606C71.6777 110.351 71.6965 110.333 72.0865 110.546L72.5177 110.783V110.235C72.4551 109.73 72.3434 109.233 72.184 108.75C71.8127 107.636 71.7752 107.618 69.409 107.479L67.8077 107.4L67.2227 107.966C66.9011 108.297 66.6191 108.665 66.3827 109.061C66.1277 109.568 66.0302 110.333 66.1877 110.505C66.2252 110.565 66.619 110.505 67.0465 110.408C67.3003 110.332 67.5621 110.287 67.8265 110.273C67.8265 110.291 67.3952 110.644 66.8515 111.015C64.5077 112.774 63.6865 113.846 63.6865 115.215C63.6865 116.64 65.0327 117.754 67.144 118.088C68.5877 118.301 71.4002 118.361 72.1052 118.148L72.109 118.144ZM103.886 115.819C104.471 115.114 104.393 114.394 103.65 113.573C103.219 113.141 102.731 112.77 102.184 112.478C101.636 112.185 101.089 111.851 100.541 111.503C99.5512 110.861 98.5341 110.261 97.4927 109.706C96.5927 109.219 95.7152 108.709 94.8565 108.165L94.504 107.891V102.521C94.504 97.23 94.4852 97.1513 94.2115 97.23C92.8427 97.6013 90.5777 97.7775 87.709 97.7175L84.604 97.68L85.054 98.775C85.894 100.845 86.3252 103.62 86.3252 106.804C86.3252 107.996 86.2465 108.424 85.954 109.264C85.7965 109.673 85.6615 110.085 85.5227 110.494C85.4627 110.67 85.6802 110.805 86.479 111.041C87.064 111.218 87.9227 111.394 88.414 111.45L89.314 111.548L89.2165 112.448C89.119 113.464 89.2352 114.536 89.4902 114.87C89.6477 115.065 90.2327 115.144 92.9477 115.26C94.999 115.358 97.2265 115.571 98.9815 115.826C100.504 116.063 102.146 116.258 102.634 116.258C103.455 116.276 103.534 116.239 103.883 115.826L103.886 115.819ZM72.619 106.68C72.6977 106.62 72.814 105.566 72.8552 104.318C73.0127 100.823 73.1477 100.313 74.9065 96.3675C76.3502 93.1463 77.1152 90.1388 77.0552 88.0088L77.0177 86.7375L76.4702 87.2663C75.3377 88.3988 76.1177 86.6213 77.4677 85.0388C78.484 83.8275 78.8365 83.1638 78.9902 82.0913C79.069 81.66 79.2265 81.4463 79.8902 80.94C82.3737 79.0639 84.2873 76.5349 85.4177 73.635C85.6915 72.93 86.3927 70.53 86.9815 68.3025C88.0765 64.1813 88.6615 62.4038 89.1902 61.6425C89.3852 61.35 89.464 61.29 89.4265 61.485C89.1433 62.5324 88.9216 63.5955 88.7627 64.6688C88.6052 65.625 88.3127 67.5 88.1177 68.8088C87.7465 71.4863 87.3565 73.2038 86.8277 74.5313L86.4752 75.4313L87.4127 77.8538C88.3877 80.3325 88.8377 82.1325 88.9165 83.8688L88.9765 84.8438L88.2152 85.0013C87.2105 85.1791 86.3139 85.7396 85.714 86.565C85.0502 87.5213 84.679 88.305 84.8552 88.4775C84.934 88.5563 85.8902 88.7325 86.9852 88.8675C88.684 89.0625 89.329 89.0625 91.5752 88.9275C92.5502 88.89 93.5102 88.7925 94.4665 88.6538C94.6802 88.575 94.8977 88.1475 95.2465 87.0338C96.049 84.4763 96.2027 83.5763 96.1052 81.78L96.0265 80.1975L96.4352 79.6688C97.3915 78.4575 98.134 76.2713 98.4452 73.71C98.8165 70.5863 98.134 64.0425 96.8627 58.4175C96.259 55.74 96.004 54.1388 96.004 52.9688V51.9338L95.0477 52.0313C91.609 52.4025 87.4502 52.305 84.9115 51.7763C83.524 51.5025 80.029 50.4675 79.2677 50.1338L78.664 49.86L78.5852 50.5425C78.5252 50.9138 78.469 51.285 78.3902 51.675C78.274 52.0838 78.3115 52.1813 79.0352 52.8863C79.9352 53.805 80.209 54.2738 80.209 54.8963C80.209 55.2863 79.9952 55.6013 78.9002 56.7338C78.1151 57.5715 77.2441 58.3244 76.3015 58.98L75.0302 59.8388L74.4827 61.7325C72.529 68.6663 72.1577 74.9738 73.4477 79.485L73.759 80.6175L73.1327 81.3975C70.789 84.345 69.4015 86.5913 69.1877 87.8438C69.0628 88.4605 68.9189 89.0733 68.7565 89.6813C68.2502 91.6163 67.8565 94.4475 67.684 97.515C67.5638 100.083 67.395 102.648 67.1777 105.21L67.0802 105.971L68.0552 106.264C68.6027 106.44 69.424 106.635 69.8927 106.714C70.7702 106.849 72.394 106.811 72.6452 106.676L72.619 106.68ZM91.5827 95.9363C93.1052 95.8388 94.4927 95.6025 94.7665 95.37C94.8827 95.2913 95.0215 94.8825 95.059 94.47L95.1565 93.7275L93.9452 94.0013C92.989 94.1963 92.0327 94.3125 91.0727 94.3913C88.7665 94.4888 86.4452 94.4288 84.1577 94.1963C83.3965 94.08 83.3965 94.08 83.629 95.0738C83.824 95.8163 83.8652 95.8538 85.8565 95.9925C87.184 96.1088 89.0402 96.09 91.579 95.9325L91.5827 95.9363ZM90.3115 92.5388C92.3027 92.3625 94.7852 91.935 95.2727 91.68C95.4302 91.6013 95.5652 91.3088 95.6252 90.975L95.8015 89.94L95.899 89.4525L95.4115 89.55C93.244 90 91.6015 90.135 88.3202 90.135C85.1177 90.135 84.7465 90.1163 83.9065 89.8238C83.5837 89.6877 83.24 89.6078 82.8902 89.5875C82.7552 89.6663 82.7327 90.78 82.8527 91.56C82.9315 92.0288 83.0102 92.1075 83.479 92.2425C84.964 92.6513 87.4652 92.7488 90.3152 92.5163L90.3115 92.5388ZM54.064 74.9213C59.0627 73.4775 65.6065 69.2363 70.9577 63.9263C72.6977 62.1863 72.9115 61.9538 73.144 61.1738L73.4552 60.1763C73.4927 60.0975 73.1815 59.9625 72.7727 59.865C71.7002 59.61 70.879 58.9875 70.879 58.4213C70.879 58.0875 70.684 57.7575 70.1177 57.15C69.199 56.115 68.9665 55.665 68.869 54.6713L68.7902 53.8688L67.6952 53.0888C67.069 52.6388 64.8827 51.4275 62.5577 50.2575C60.7875 49.3939 59.0547 48.4555 57.364 47.445C55.4102 46.1363 54.1015 44.5725 53.359 42.72C53.224 42.3488 53.0477 42.0375 52.9877 42.0375C52.8302 42.0375 48.4352 46.275 46.5602 48.2663C41.9327 53.1488 38.749 57.3863 36.7352 61.3125C36.229 62.2875 35.6815 63.4425 35.524 63.87L35.2315 64.65L35.584 65.9588C35.7977 66.6638 36.2477 67.815 36.6002 68.4975C37.8302 70.92 39.2965 72.3825 41.719 73.575C44.3177 74.865 46.6202 75.315 50.4677 75.255C52.5377 75.2363 53.1452 75.1763 54.0602 74.9025L54.064 74.9213ZM14.6102 57.7913C17.8915 54.8813 22.4215 51.6975 27.9715 48.3975C31.6052 46.23 45.649 39.1988 52.114 36.3263C53.2877 35.7975 54.3415 35.31 54.4577 35.2538C54.574 35.175 54.9077 34.335 55.219 33.3975C56.5877 29.0625 57.2702 28.2038 59.749 27.6375C60.0602 27.5588 60.139 27.4613 60.139 27.15C60.139 26.5838 60.529 25.275 60.8627 24.69C61.1177 24.24 61.1177 24.2213 60.9002 24.2813C60.7652 24.3188 59.944 24.555 59.0852 24.81C47.1715 28.2488 36.7615 32.8163 27.7765 38.52C18.1877 44.6138 12.6602 51.9188 11.059 60.6675L10.9427 61.3125L12.1165 60.1613C12.7427 59.5163 13.8752 58.4625 14.6177 57.8175L14.6102 57.7913ZM102.99 59.4525C103.946 58.965 105.431 56.7188 105.979 54.9413C106.136 54.315 106.448 53.73 106.898 53.2425C108.341 51.6413 109.534 48.7313 109.553 46.74C109.553 43.635 107.794 42.4425 105.236 43.77C104.903 43.9275 104.633 44.0438 104.591 44.0063C104.456 43.8713 105.176 43.1663 106.058 42.6188C107.209 41.8575 107.426 41.4075 107.426 39.7875C107.443 38.4781 107.054 37.1955 106.313 36.1163C105.96 35.5875 105.825 35.2388 105.881 35.0213L106.234 33.7125C106.721 31.9725 106.545 29.9813 105.784 28.7138C104.651 26.8013 103.264 25.8638 101.329 25.7063L100.196 25.6275L100.86 26.37C102.833 28.5 103.789 31.1738 103.399 33.4613C103.204 34.635 103.028 34.8675 101.895 35.3175L101.231 35.5913L101.31 36.4913C101.445 37.9575 101.194 39.03 100.256 41.0025C99.7877 42 99.4352 42.8963 99.4765 42.9938C99.5927 43.3275 100.883 43.95 101.899 44.205L102.896 44.4413L102.27 44.655C101.449 44.91 101.273 45.2813 101.273 46.6275C101.273 47.8575 101.449 48.3675 102.345 49.7138C102.754 50.2988 103.028 50.9063 103.069 51.255C103.148 51.8025 103.129 51.84 102.679 51.9975C102.169 52.1407 101.644 52.2262 101.115 52.2525C99.2777 52.3688 99.1427 52.4288 98.3215 53.2088C97.579 53.9138 97.5602 53.9513 97.5602 54.7313C97.5602 55.8038 97.969 57.975 98.224 58.2675C98.5577 58.62 100.41 59.5388 101.134 59.6738C101.758 59.8305 102.418 59.7545 102.99 59.46V59.4525ZM75.9377 57.99C77.1302 57.0525 78.0677 56.115 78.5927 55.3125C78.9265 54.825 78.9452 54.7275 78.7877 54.315C78.514 53.6888 76.7177 52.0688 75.7202 51.5813C75.0556 51.2835 74.3525 51.0803 73.6315 50.9775L72.4015 50.82L71.6402 49.8638C70.0577 47.91 69.1802 46.3875 67.9277 43.4363C66.8327 40.935 65.8765 39.4725 64.354 38.025C63.7277 37.44 63.2815 36.9525 63.319 36.9525C63.3977 36.9525 64.1402 37.3238 64.999 37.7738C66.424 38.535 66.6002 38.595 67.2452 38.4975C69.5702 38.2238 71.6215 35.55 72.364 31.8C72.5777 30.7463 73.009 29.67 73.459 29.025C73.4777 29.0063 74.3777 29.5913 75.4315 30.3525C78.109 32.2463 78.694 32.5388 80.2165 32.5988C81.214 32.6363 81.7802 32.5613 83.5765 32.13C87.4052 31.1925 91.5452 30.8213 94.0652 31.155C95.4902 31.35 97.5415 31.9763 99.064 32.6963C100.568 33.4013 100.86 33.4388 101.348 33.0075C101.756 32.655 101.756 32.5988 101.756 31.29C101.738 29.355 101.033 27.2663 99.9602 26.0175C99.4127 25.3725 97.8715 24.3188 96.3452 23.5163C95.8027 23.2285 95.2627 22.936 94.7252 22.6388C94.0015 22.2075 93.184 22.2675 90.9565 22.8525C88.3765 23.5163 87.694 23.5163 84.7465 22.755C82.2452 22.1288 82.0915 22.11 79.6277 22.5C78.319 22.695 75.0377 22.5788 73.9427 22.2863C73.3952 22.1288 72.8477 21.975 72.3227 21.78C71.3665 21.4088 69.7052 21.3488 68.2015 21.6225C65.2127 22.1513 62.9477 23.7713 62.1265 25.9763C61.6952 27.09 61.7552 27.6188 62.3215 27.9675C63.2215 28.5338 64.4102 30.0788 64.4102 30.6825C64.4102 30.72 64.1177 30.4688 63.784 30.1163C62.944 29.2388 62.1827 28.845 61.2827 28.845C60.7004 28.8612 60.1342 29.0397 59.6479 29.3603C59.1616 29.681 58.7745 30.1311 58.5302 30.66C58.2674 31.35 58.0458 32.055 57.8665 32.7713C57.319 34.7625 56.8315 35.82 55.7965 37.2263C54.8777 38.4975 54.7427 39.0638 55.0727 40.4888C55.894 44.0813 57.319 45.5288 63.274 48.9075C66.3977 50.685 67.999 51.6825 69.1727 52.56C70.0727 53.2238 70.0915 53.265 70.0127 53.7713C69.8365 54.945 70.579 56.2125 72.0452 57.2475C72.4165 57.5025 72.649 57.7763 72.649 57.9713C72.649 58.3238 73.6465 58.8113 74.3665 58.8113C74.7752 58.8113 75.0902 58.635 75.9302 57.99H75.9377ZM100.02 51.405C102.285 51.4838 102.401 51.3075 101.194 49.9013C99.9227 48.435 99.574 47.2463 100.043 45.9375L100.238 45.4313L99.4352 45.0413C99.1615 44.9063 98.8877 44.7675 98.614 44.67C98.479 45.1988 98.3402 45.705 98.224 46.2338C97.9315 47.4263 97.579 50.5125 97.5602 51.8213C97.5602 51.9375 97.7552 51.9 98.089 51.6863C98.5577 51.4125 98.794 51.375 100.024 51.4125L100.02 51.405ZM92.4227 51.2888C93.7915 51.21 95.1977 51.1125 95.569 51.0525L96.2515 50.955L96.3302 48.7088C96.4465 45.5063 96.9152 43.6125 98.3027 40.5825C99.2777 38.4338 99.709 36.5588 99.4952 35.1525C99.4165 34.5488 99.379 34.5075 98.5577 34.155C97.0539 33.5579 95.4879 33.1315 93.889 32.8838C92.3477 32.67 87.814 32.7863 86.1152 33.12C85.4102 33.2363 84.124 33.51 83.2652 33.7238C81.1352 34.2113 80.0027 34.155 78.3827 33.45C76.7815 32.745 75.7652 32.1038 74.809 31.2038C74.0477 30.4988 73.969 30.4613 73.774 30.6975C73.6165 30.8738 73.5377 31.4025 73.4815 32.535C73.4215 34.275 73.1477 35.19 72.3865 36.42C72.2173 36.6731 72.0729 36.9418 71.9552 37.2225C71.9552 37.2825 72.5402 37.965 73.264 38.7075C75.7652 41.3063 76.9952 41.97 78.9677 41.8313C79.6127 41.7713 80.0627 41.7938 80.0627 41.8688C80.0627 42.0263 78.7915 43.02 78.2665 43.2938C78.0115 43.4288 77.9552 43.5675 77.9927 43.86L78.304 45.9113C78.4802 47.085 78.6152 47.6288 78.7915 47.7863C79.2602 48.1763 81.6827 49.4288 83.2052 50.0513C85.1965 50.8538 86.2915 51.1463 87.814 51.2813C89.689 51.4388 89.7265 51.4388 92.4227 51.2813V51.2888ZM76.2715 49.14C76.309 49.08 76.174 47.9475 75.919 46.6388C75.6077 44.8613 75.4315 44.2163 75.2365 44.04C75.1015 43.9238 74.3777 43.4138 73.654 42.8888C72.703 42.205 71.802 41.4543 70.9577 40.6425L69.6115 39.315L68.8877 39.6863L68.1265 40.095C68.1905 40.4001 68.2952 40.6952 68.4377 40.9725C68.6515 41.4413 69.0827 42.5925 69.394 43.53C70.2152 45.9713 70.8602 47.145 72.4802 49.2713L73.084 50.0738L74.2352 50.25C74.8802 50.3475 75.5252 50.4863 75.7015 50.5425C75.9752 50.6588 76.0127 50.6025 76.0915 49.9763C76.129 49.7025 76.189 49.41 76.2677 49.1363L76.2715 49.14ZM101.018 24.8438C102.015 24.7463 102.191 24.6075 101.76 24.1613C101.486 23.8875 100.86 23.8688 100.354 24.1013C100.02 24.2588 99.9452 24.2175 99.4165 23.6513C98.869 23.0475 98.8315 23.025 98.1452 23.1038C97.519 23.1825 97.4215 23.1638 97.3427 22.9088C97.0988 22.4899 96.7957 22.1084 96.4427 21.7763C95.9992 21.2722 95.4446 20.8781 94.8227 20.625C93.6115 20.1563 92.929 20.2163 91.774 20.8613C88.4327 22.6763 88.5715 22.6575 85.3465 21.8363C82.339 21.075 80.0927 20.295 79.369 19.8038C78.7652 19.395 77.4752 18.945 76.399 18.8063C75.5965 18.69 75.0902 18.8663 74.329 19.4888L73.9202 19.8225L74.2915 20.4675C74.7977 21.3675 74.7415 21.4238 73.9802 20.76C73.159 20.0775 72.184 19.6088 71.5577 19.5863C71.1077 19.5863 69.7802 20.1713 69.6227 20.4263C69.5627 20.505 69.9752 20.6025 70.5227 20.64C71.089 20.7 71.869 20.895 72.3977 21.1088C73.7665 21.6938 74.4677 21.8888 75.7165 22.0088C77.0852 22.1438 79.564 21.99 79.8565 21.7538C80.014 21.6188 80.4415 21.5963 81.3415 21.675C82.534 21.7538 83.0215 21.87 85.8527 22.6313C87.4952 23.0813 88.6465 23.04 90.6002 22.515C91.5002 22.26 92.6327 22.0088 93.1015 21.9488C93.904 21.87 94.0577 21.9113 95.3102 22.4775C97.3015 23.3775 98.359 23.9438 98.944 24.4688C99.529 24.975 99.6077 24.975 101.014 24.8588L101.018 24.8438ZM89.884 21.4275L91.0765 20.8013L91.039 19.59C91.0202 18.75 90.979 17.9288 90.9415 17.1113L90.844 15.8625L89.6515 16.7813C88.9465 17.3288 88.264 17.7375 87.9715 17.7975C87.1127 17.955 82.8752 17.7975 82.4815 17.5838C81.9569 17.1963 81.4664 16.7647 81.0152 16.2938L79.9202 15.18L79.9015 15.8438C79.9015 16.1963 79.864 16.8 79.7852 17.1713C79.6877 17.8763 79.6877 17.895 80.449 18.8513C80.8577 19.38 81.1915 19.8488 81.1915 19.905C81.1915 20.2763 86.8352 22.035 88.1065 22.0538C88.5152 22.0538 89.0252 21.8775 89.884 21.4275V21.4275ZM87.619 16.9913C89.0252 16.7175 89.7077 15.7013 90.2365 13.125C90.784 10.35 91.0577 5.99625 90.8027 4.14C90.5665 2.46 88.6915 1.7175 85.1177 1.83375C82.8902 1.9125 81.9715 2.12625 81.2102 2.77125C80.7415 3.16125 80.7415 3.2025 80.5277 5.055C80.1377 8.61 80.7227 13.6688 81.739 15.5625C82.2265 16.4813 82.6577 16.8113 83.554 16.9688C84.5702 17.145 86.7377 17.145 87.6152 16.9875L87.619 16.9913Z" fill="black"/>
</svg>
